<svg width="172" height="167" viewBox="0 0 172 167" fill="none" xmlns="http://www.w3.org/2000/svg">
<path d="M41.2599 82.0002C64.0472 82.0002 82.5199 63.6439 82.5199 41.0002C82.5199 18.3566 64.0472 0.000244141 41.2599 0.000244141C18.4727 0.000244141 0 18.3566 0 41.0002C0 63.6439 18.4727 82.0002 41.2599 82.0002Z" fill="#E75251"/>
<path d="M151.74 0H111.936C101.213 0 92.5198 8.63827 92.5198 19.2941V58.8471C92.5198 69.5029 101.213 78.1412 111.936 78.1412H151.74C162.463 78.1412 171.156 69.5029 171.156 58.8471V19.2941C171.156 8.63827 162.463 0 151.74 0Z" fill="#6FBCE7"/>
<path d="M99.446 96.3255C108.041 87.8915 121.976 87.8915 130.571 96.3255C131.268 97.0094 132.398 97.0094 133.095 96.3255C141.689 87.8915 155.625 87.8915 164.219 96.3255C172.814 104.76 172.814 118.434 164.219 126.868C163.522 127.552 163.522 128.66 164.219 129.344C172.814 137.778 172.814 151.452 164.219 159.886C155.625 168.32 141.689 168.32 133.095 159.886C132.398 159.203 131.268 159.203 130.571 159.886C121.976 168.32 108.041 168.32 99.446 159.886C90.8513 151.452 90.8513 137.778 99.446 129.344C100.143 128.66 100.143 127.552 99.446 126.868C90.8513 118.434 90.8513 104.76 99.446 96.3255Z" fill="#6FCF97"/>
<path d="M28.9253 97.3055C34.6231 87.5648 48.867 87.5648 54.5647 97.3055L81.4847 143.33C87.1824 153.071 80.0605 165.247 68.666 165.247H14.8241C3.42959 165.247 -3.69237 153.071 2.00539 143.33L28.9253 97.3055Z" fill="#FFE26F"/>
</svg>
