<svg width="25" height="22" viewBox="0 0 25 22" fill="none" xmlns="http://www.w3.org/2000/svg">
<path d="M20.3618 0.241791H4.51086C2.26736 0.241791 0.440186 2.07668 0.440186 4.31246V14.1653C0.440186 16.4088 2.27507 18.236 4.51086 18.236H10.108L11.0717 19.9013L12.02 21.5434C12.1896 21.8441 12.6214 21.8441 12.7987 21.5434L13.747 19.9013L14.7107 18.236H20.3695C22.613 18.236 24.4402 16.4011 24.4402 14.1653V4.32017C24.4402 2.07668 22.6053 0.241791 20.3618 0.241791Z" fill="black"/>
<path d="M13.5465 7.37469C12.3207 7.37469 11.3262 8.37532 11.3262 9.61232C11.3262 10.8493 12.3207 11.8499 13.5465 11.8499C14.7724 11.8499 15.7669 10.8493 15.7669 9.61232C15.7669 8.37532 14.7801 7.37469 13.5465 7.37469ZM13.5465 10.6839C12.9606 10.6839 12.4826 10.2032 12.4826 9.61232C12.4826 9.0214 12.9606 8.54078 13.5465 8.54078C14.1325 8.54078 14.6105 9.0214 14.6105 9.61232C14.6105 10.2032 14.1402 10.6839 13.5465 10.6839Z" fill="white"/>
<path d="M6.52308 7.3747C6.04508 7.3747 5.59792 7.5638 5.25099 7.88684V6.03528H4.01746V11.7475H5.25099V11.3457C5.59792 11.6609 6.03737 11.8578 6.52308 11.8578C7.62555 11.8578 8.51986 10.8572 8.51986 9.62021C8.51986 8.38321 7.63326 7.3747 6.52308 7.3747ZM6.27637 10.7311C5.8215 10.7311 5.42831 10.4554 5.2587 10.0536C5.20473 9.91961 5.16619 9.76991 5.16619 9.61233C5.16619 9.45475 5.19703 9.30505 5.2587 9.17111C5.42831 8.76928 5.8215 8.49352 6.27637 8.49352C6.89314 8.49352 7.38655 8.98989 7.38655 9.61233C7.38655 10.2348 6.89314 10.7311 6.27637 10.7311Z" fill="white"/>
<path d="M19.614 7.46927V7.82382C19.2671 7.54806 18.8354 7.3826 18.3728 7.3826C17.2395 7.3826 16.322 8.35171 16.322 9.54143C16.322 10.7312 17.2395 11.7003 18.3728 11.7003C18.8431 11.7003 19.2748 11.5348 19.614 11.259V11.8578C19.614 11.8578 19.4907 12.4488 18.6272 12.4488V13.5597C18.6272 13.5597 19.5601 13.67 20.3927 12.8191C20.3927 12.8191 20.7782 12.4015 20.863 11.85V7.46927H19.614V7.46927ZM18.6041 10.6366C17.9796 10.6366 17.4785 10.1402 17.4785 9.53355C17.4785 8.92687 17.9873 8.4305 18.6041 8.4305C19.0435 8.4305 19.429 8.68262 19.614 9.04506C19.6911 9.19476 19.7297 9.36022 19.7297 9.53355C19.7297 9.70689 19.6834 9.88023 19.614 10.022C19.429 10.3924 19.0435 10.6366 18.6041 10.6366Z" fill="white"/>
<path d="M8.65869 5.92498V7.06742C8.65869 7.06742 9.2292 7.14621 9.33714 7.7135V11.7475H10.6092V7.7135V7.68198C10.5321 7.1147 10.2006 6.68923 10.2006 6.68923C9.47591 5.81467 8.65869 5.92498 8.65869 5.92498Z" fill="white"/>
</svg>
