<svg width="40" height="40" viewBox="0 0 40 40" fill="none" xmlns="http://www.w3.org/2000/svg">
<path d="M21.0039 3.67383C25.2352 -0.557469 32.0949 -0.557496 36.3262 3.67383C40.5572 7.90523 40.5578 14.7645 36.3271 18.9961C35.7727 19.5497 35.7721 20.4491 36.3262 21.0029C40.5574 25.2345 40.5574 32.0946 36.3262 36.3262C32.0949 40.5576 25.2351 40.5576 21.0039 36.3262C20.4496 35.7719 19.5504 35.7719 18.9961 36.3262C14.7649 40.5576 7.90504 40.5576 3.67383 36.3262C-0.557581 32.0946 -0.557538 25.2345 3.67383 21.0029L3.67285 21.002C4.22697 20.4481 4.2273 19.5497 3.67285 18.9961C-0.557854 14.7645 -0.557321 7.90521 3.67383 3.67383C7.90507 -0.557509 14.7648 -0.557442 18.9961 3.67383C19.5503 4.22814 20.4496 4.22811 21.0039 3.67383Z" fill="#6FCF97" stroke="black"/>
</svg>
