<svg width="52" height="52" viewBox="0 0 52 52" fill="none" xmlns="http://www.w3.org/2000/svg">
<path d="M12.7891 25.053C19.6926 25.053 25.2891 19.4565 25.2891 12.553C25.2891 5.64942 19.6926 0.0529785 12.7891 0.0529785C5.8855 0.0529785 0.289062 5.64942 0.289062 12.553C0.289062 19.4565 5.8855 25.053 12.7891 25.053Z" fill="#E75251"/>
<path d="M45.3631 1.05298H33.215C29.9422 1.05298 27.2891 3.70611 27.2891 6.9789V19.1271C27.2891 22.3999 29.9422 25.053 33.215 25.053H45.3631C48.6359 25.053 51.2891 22.3999 51.2891 19.1271V6.9789C51.2891 3.70611 48.6359 1.05298 45.3631 1.05298Z" fill="#6FBCE7"/>
<path d="M9.29682 30.286C11.0712 27.3086 15.5069 27.3086 17.2813 30.286L25.6646 44.354C27.4389 47.3313 25.221 51.053 21.6726 51.053H4.90551C1.35709 51.053 -0.860794 47.3313 0.913569 44.354L9.29682 30.286Z" fill="#FFE26F"/>
<path d="M30.198 29.962C32.7433 27.4166 36.8701 27.4167 39.4153 29.962C39.6217 30.1683 39.9564 30.1683 40.1628 29.962C42.7081 27.4167 46.8349 27.4166 49.3801 29.962C51.9254 32.5073 51.9254 36.634 49.3801 39.1793C49.1737 39.3857 49.1737 39.7203 49.3801 39.9266C51.9254 42.4719 51.9254 46.5987 49.3801 49.144C46.8349 51.6893 42.7081 51.6893 40.1628 49.144C39.9564 48.9376 39.6217 48.9376 39.4153 49.144C36.8701 51.6893 32.7433 51.6893 30.198 49.144C27.6527 46.5987 27.6527 42.4719 30.198 39.9266C30.4044 39.7203 30.4044 39.3857 30.198 39.1793C27.6527 36.634 27.6527 32.5073 30.198 29.962Z" fill="#6FCF97"/>
</svg>
