<svg width="305" height="304" viewBox="0 0 305 304" fill="none" xmlns="http://www.w3.org/2000/svg">
<path d="M158.163 25.9395C191.525 -7.31294 245.618 -7.31332 278.979 25.9395C312.339 59.1927 312.34 113.1 278.98 146.354C275.851 149.469 275.85 154.529 278.979 157.645C312.34 190.898 312.34 244.806 278.979 278.059C245.618 311.313 191.525 311.313 158.163 278.059C155.035 274.941 149.966 274.941 146.838 278.059C113.476 311.313 59.3824 311.313 26.0205 278.059C-7.34022 244.806 -7.34073 190.898 26.0195 157.645L26.0205 157.646C29.1506 154.53 29.1497 149.469 26.0195 146.354C-7.34068 113.1 -7.34038 59.1926 26.0205 25.9395C59.3823 -7.31374 113.476 -7.31314 146.838 25.9395C149.966 29.0572 155.035 29.0572 158.163 25.9395Z" fill="#6FCF97" stroke="black" stroke-width="2"/>
</svg>
