<svg width="300" height="299" viewBox="0 0 300 299" fill="none" xmlns="http://www.w3.org/2000/svg">
<path d="M155.581 25.5244C188.39 -7.17503 241.586 -7.17515 274.395 25.5244C307.201 58.2243 307.202 111.235 274.396 143.935C271.311 147.005 271.31 151.993 274.395 155.063C307.201 187.763 307.201 240.774 274.395 273.474C241.586 306.175 188.39 306.175 155.581 273.474C152.498 270.402 147.503 270.402 144.42 273.474C111.611 306.175 58.4141 306.175 25.6055 273.474C-7.20189 240.774 -7.20235 187.763 25.6045 155.063L25.6055 155.064C28.6908 151.994 28.6898 147.005 25.6045 143.935C-7.20229 111.235 -7.20206 58.2241 25.6055 25.5244C58.4141 -7.1756 111.611 -7.17523 144.42 25.5244C147.503 28.5972 152.498 28.5972 155.581 25.5244Z" fill="#6FCF97" stroke="black" stroke-width="2"/>
</svg>
