<svg width="462" height="315" viewBox="0 0 462 315" fill="none" xmlns="http://www.w3.org/2000/svg">
<rect x="1.3453" y="208.196" width="455" height="118" rx="59" transform="rotate(-27.0402 1.3453 208.196)" fill="#6FBCE7"/>
<rect x="1.3453" y="208.196" width="455" height="118" rx="59" transform="rotate(-27.0402 1.3453 208.196)" stroke="black" stroke-width="2"/>
<path d="M65.6995 222.009C67.4096 221.136 69.0876 220.699 70.7333 220.697C72.3908 220.66 73.8904 221.017 75.2324 221.769C76.586 222.485 77.6386 223.58 78.3902 225.052C79.1419 226.525 79.4167 228.031 79.2148 229.571C79.0246 231.076 78.4281 232.488 77.4253 233.808C76.4463 235.116 75.1017 236.207 73.3916 237.079C71.729 237.928 70.0689 238.371 68.4115 238.409C66.7541 238.446 65.2486 238.107 63.895 237.391C62.5531 236.639 61.5063 235.526 60.7546 234.054C60.003 232.581 59.7163 231.081 59.8944 229.553C60.0963 228.013 60.6986 226.582 61.7014 225.262C62.7042 223.942 64.0369 222.858 65.6995 222.009ZM67.699 225.839C66.8915 226.251 66.2459 226.775 65.7622 227.411C65.2664 228.023 64.9678 228.7 64.8666 229.44C64.7892 230.168 64.9505 230.924 65.3506 231.708C65.7506 232.492 66.2743 233.078 66.9215 233.466C67.5804 233.818 68.2913 233.979 69.0543 233.949C69.8411 233.907 70.6501 233.673 71.4815 233.249C72.289 232.837 72.9288 232.331 73.4009 231.73C73.8967 231.118 74.1833 230.448 74.2608 229.72C74.3499 228.956 74.1944 228.182 73.7943 227.398C73.3942 226.614 72.8648 226.046 72.2059 225.694C71.5708 225.329 70.8599 225.168 70.0731 225.211C69.2742 225.229 68.4829 225.439 67.699 225.839ZM78.6226 214.245L83.3611 211.827L91.7806 228.322L87.0421 230.741L78.6226 214.245ZM70.4894 240.896L92.4716 229.676L97.0723 238.69L79.793 247.509L81.8478 251.535L77.1806 253.917L73.38 246.471L90.6237 237.67L89.6236 235.71L72.3442 244.53L70.4894 240.896ZM76.1805 251.958L98.9464 240.338L100.838 244.043L78.0717 255.663L76.1805 251.958ZM107.313 224.885L112.051 222.467L114.779 227.811L110.041 230.229L107.313 224.885ZM111.504 197.462L116.242 195.044L133.081 228.035L128.343 230.453L111.504 197.462ZM103.489 236.223L100.955 232.666C102.95 231.648 105.118 230.527 107.457 229.303C109.796 228.079 112.164 226.765 114.562 225.362C116.983 223.946 119.267 222.496 121.413 221.012L123.48 224.268C121.299 225.92 119.04 227.477 116.702 228.94C114.377 230.366 112.086 231.685 109.83 232.897C107.574 234.108 105.461 235.217 103.489 236.223ZM91.3767 212.316L111.257 202.169L113.148 205.874L93.2679 216.021L91.3767 212.316ZM103.863 212.231C105.478 211.406 107.036 210.94 108.538 210.832C110.04 210.724 111.371 210.958 112.533 211.532C113.718 212.095 114.626 212.994 115.257 214.229C115.875 215.44 116.07 216.703 115.843 218.017C115.627 219.295 115.034 220.51 114.066 221.663C113.098 222.816 111.806 223.805 110.191 224.629C108.576 225.453 107.017 225.919 105.515 226.027C104.014 226.135 102.67 225.908 101.485 225.345C100.311 224.747 99.4151 223.842 98.7968 222.63C98.1664 221.395 97.9592 220.139 98.1752 218.861C98.4149 217.571 99.019 216.349 99.9874 215.196C100.956 214.044 102.247 213.055 103.863 212.231ZM105.681 215.793C104.588 216.351 103.819 217.043 103.373 217.87C102.914 218.673 102.897 219.49 103.321 220.321C103.758 221.176 104.436 221.653 105.355 221.753C106.274 221.853 107.28 221.624 108.372 221.066C109.465 220.508 110.24 219.828 110.699 219.025C111.157 218.223 111.168 217.394 110.732 216.539C110.308 215.707 109.636 215.242 108.717 215.142C107.786 215.019 106.774 215.236 105.681 215.793ZM97.1294 204.934L101.904 202.497L104.795 208.162L100.021 210.599L97.1294 204.934ZM133.83 199.944L138.532 197.544L141.624 203.6L136.921 206.001L133.83 199.944ZM145.409 194.034L150.147 191.615L153.238 197.672L148.5 200.091L145.409 194.034ZM129.46 208.012L159.316 192.774L161.207 196.479L131.351 211.718L129.46 208.012ZM147.063 205.809C150.625 203.991 153.695 203.083 156.271 203.085C158.835 203.064 160.608 204.015 161.59 205.939C162.559 207.839 162.29 209.833 160.781 211.921C159.271 214.009 156.735 215.962 153.173 217.78C149.61 219.599 146.54 220.507 143.964 220.504C141.412 220.489 139.651 219.532 138.681 217.632C137.699 215.708 137.957 213.72 139.455 211.668C140.964 209.581 143.5 207.628 147.063 205.809ZM148.881 209.372C147.408 210.124 146.222 210.849 145.321 211.548C144.432 212.211 143.829 212.849 143.512 213.459C143.195 214.07 143.176 214.649 143.455 215.195C143.734 215.741 144.22 216.077 144.913 216.203C145.593 216.304 146.463 216.19 147.522 215.859C148.604 215.516 149.882 214.969 151.354 214.217C152.827 213.466 154.008 212.758 154.896 212.095C155.809 211.419 156.424 210.776 156.741 210.165C157.046 209.531 157.059 208.94 156.78 208.394C156.501 207.848 156.021 207.524 155.341 207.422C154.66 207.32 153.779 207.441 152.696 207.784C151.625 208.091 150.354 208.62 148.881 209.372ZM136.641 185.216C139.088 183.967 141.335 183.149 143.383 182.763C145.443 182.34 147.202 182.355 148.661 182.808C150.119 183.261 151.182 184.141 151.849 185.447C152.516 186.754 152.605 188.131 152.116 189.578C151.615 191.001 150.595 192.435 149.057 193.878C147.53 195.287 145.543 196.615 143.097 197.864C140.698 199.088 138.469 199.911 136.409 200.334C134.337 200.733 132.578 200.718 131.131 200.288C129.672 199.835 128.61 198.956 127.943 197.649C127.276 196.343 127.187 194.966 127.676 193.519C128.165 192.072 129.185 190.638 130.735 189.218C132.274 187.774 134.242 186.44 136.641 185.216ZM138.478 188.814C137.005 189.566 135.789 190.321 134.829 191.081C133.858 191.816 133.202 192.525 132.861 193.208C132.545 193.878 132.544 194.522 132.86 195.14C133.163 195.734 133.678 196.099 134.407 196.236C135.159 196.361 136.125 196.258 137.303 195.926C138.468 195.57 139.788 195.017 141.26 194.265C142.78 193.489 144.014 192.74 144.962 192.016C145.898 191.269 146.537 190.554 146.877 189.872C147.217 189.189 147.235 188.551 146.932 187.957C146.617 187.339 146.083 186.968 145.331 186.843C144.579 186.718 143.631 186.827 142.489 187.171C141.335 187.491 139.998 188.038 138.478 188.814ZM176.084 187.359L180.787 184.958L183.333 189.946L178.63 192.347L176.084 187.359ZM162.125 191.07L191.981 175.832L193.891 179.572L164.035 194.811L162.125 191.07ZM157.307 175.207L181.925 162.641L183.853 166.418L159.234 178.983L157.307 175.207ZM162.012 183.808L186.096 171.515L188.005 175.256L163.921 187.549L162.012 183.808ZM162.202 174.415L166.94 171.996L171.959 181.829L167.221 184.248L162.202 174.415ZM173.674 168.559L178.412 166.141L183.431 175.974L178.693 178.393L173.674 168.559ZM168.908 195.737L191.71 184.099L197.202 194.858L174.4 206.496L168.908 195.737ZM188.97 190.168L175.431 197.078L177.122 200.391L190.661 193.481L188.97 190.168ZM200.516 176.37L204.934 174.115L206.589 177.358L209.866 175.685L208.212 172.442L212.558 170.224L219.359 183.549L207.317 189.695L200.516 176.37ZM208.334 180.778L209.916 183.877L213.194 182.204L211.612 179.105L208.334 180.778ZM217.543 167.32L221.106 165.502L222.361 167.96C223.185 169.575 223.759 171.258 224.084 173.009C224.396 174.735 224.339 176.441 223.912 178.126C223.52 179.823 222.669 181.41 221.357 182.888L217.241 180.543C218.293 179.318 219.01 178.083 219.393 176.84C219.788 175.561 219.921 174.325 219.792 173.134C219.65 171.918 219.319 170.8 218.798 169.779L217.543 167.32ZM218.612 166.775L222.246 164.92L223.501 167.378C224.083 168.518 224.818 169.52 225.708 170.383C226.609 171.211 227.67 171.822 228.89 172.217C230.133 172.601 231.535 172.678 233.095 172.451L232.544 177.178C230.579 177.433 228.806 177.245 227.227 176.614C225.647 175.983 224.25 175.035 223.035 173.769C221.808 172.479 220.752 170.967 219.867 169.233L218.612 166.775ZM207.336 157.441L215.601 153.222L217.547 157.034L209.282 161.253L207.336 157.441ZM196.765 155.471C198.428 154.623 200.082 154.197 201.728 154.196C203.397 154.182 204.909 154.563 206.263 155.339C207.617 156.115 208.682 157.263 209.458 158.783C210.234 160.303 210.545 161.851 210.391 163.426C210.225 164.978 209.646 166.426 208.656 167.77C207.689 169.102 206.374 170.192 204.712 171.04C203.073 171.877 201.419 172.302 199.749 172.316C198.103 172.318 196.603 171.931 195.249 171.155C193.883 170.355 192.812 169.195 192.036 167.675C191.26 166.155 190.955 164.619 191.121 163.067C191.287 161.515 191.854 160.074 192.821 158.742C193.811 157.398 195.126 156.308 196.765 155.471ZM198.747 159.355C197.939 159.767 197.294 160.291 196.81 160.927C196.35 161.551 196.094 162.251 196.04 163.026C195.975 163.778 196.149 164.558 196.561 165.366C196.973 166.173 197.509 166.783 198.168 167.195C198.827 167.607 199.545 167.81 200.32 167.803C201.119 167.785 201.922 167.569 202.729 167.157C203.537 166.745 204.171 166.227 204.631 165.603C205.114 164.967 205.383 164.261 205.436 163.485C205.489 162.71 205.31 161.918 204.898 161.11C204.485 160.303 203.956 159.705 203.308 159.317C202.649 158.905 201.92 158.708 201.121 158.727C200.346 158.733 199.555 158.942 198.747 159.355ZM209.899 147.241L214.673 144.804L223.583 162.261L218.809 164.698L209.899 147.241ZM228.034 149.167L250.907 137.492L252.834 141.269L229.961 152.943L228.034 149.167ZM228.037 158.236L257.893 142.998L259.821 146.774L229.965 162.013L228.037 158.236ZM224.088 141.436L228.826 139.017L233.736 148.636L228.998 151.055L224.088 141.436ZM237.75 168.907L261.086 156.996L263.032 160.809L239.696 172.719L237.75 168.907ZM234.677 162.886L239.416 160.468L243.016 167.522L238.278 169.94L234.677 162.886ZM283.026 109.826L287.765 107.407L304.658 140.505L299.92 142.924L283.026 109.826ZM263.351 123.191L268.054 120.791L272.164 128.843L279.005 125.351L274.895 117.299L279.598 114.899L291.218 137.665L274.971 145.957L263.351 123.191ZM274.037 132.512L277.747 139.78L284.587 136.289L280.878 129.021L274.037 132.512ZM316.033 93.0239L320.807 90.5872L333.118 114.707L328.344 117.144L316.033 93.0239ZM315.278 105.535L321.619 102.298L323.583 106.146L317.242 109.383L315.278 105.535ZM306.938 100.81L311.89 98.2819C313.405 101.251 314.182 104.238 314.218 107.243C314.255 110.248 313.594 113.205 312.235 116.115C310.899 119.012 308.889 121.789 306.204 124.447L302.317 121.671C304.446 119.566 306.098 117.436 307.273 115.279C308.435 113.099 309.085 110.971 309.223 108.894C309.373 106.782 308.975 104.8 308.029 102.947L306.938 100.81ZM296.535 106.12L309.931 99.2821L311.858 103.059L298.462 109.896L296.535 106.12ZM313.801 130.27L336.246 118.813L338.192 122.626L315.747 134.082L313.801 130.27ZM310.273 123.358L315.012 120.94L319.667 130.06L314.929 132.479L310.273 123.358ZM340.058 84.7581L344.654 82.4123C345.963 84.9774 347.01 87.5269 347.794 90.0607C348.602 92.5823 349.017 95.1549 349.039 97.7785C349.061 100.402 348.576 103.119 347.586 105.93C346.595 108.741 344.956 111.718 342.669 114.862L338.285 112.519C340.195 109.927 341.6 107.488 342.499 105.203C343.41 102.882 343.893 100.66 343.947 98.5363C344.012 96.3771 343.72 94.2209 343.07 92.0677C342.444 89.9023 341.543 87.6677 340.367 85.3637L340.058 84.7581ZM329.476 90.1589L342.837 83.3397L344.764 87.1162L331.404 93.9354L329.476 90.1589ZM344.293 92.791L346.147 96.425L334.901 103.602L332.241 99.8856L344.293 92.791ZM347.007 77.1691L351.782 74.7324L368.621 107.723L363.846 110.16L347.007 77.1691ZM357.026 87.9984L362.833 85.0343L364.815 88.9177L359.008 91.8818L357.026 87.9984ZM382.882 58.948L387.371 56.6568L404.21 89.6478L399.721 91.9391L382.882 58.948ZM379.32 75.9007L383.738 73.6458L385.847 77.7786L381.429 80.0335L379.32 75.9007ZM376.636 62.8997L381.054 60.6448L396.784 91.4626L392.366 93.7175L376.636 62.8997ZM360.867 74.8552L375.902 67.1813L377.83 70.9578L362.795 78.6317L360.867 74.8552ZM371.961 96.6774L369.48 93.0486C370.501 92.5273 371.677 91.9272 373.007 91.2483C374.325 90.5457 375.696 89.8008 377.121 89.0138C378.533 88.2031 379.928 87.3865 381.305 86.5641C382.693 85.7058 383.974 84.8723 385.148 84.0635L387.179 87.3383C385.686 88.579 384.015 89.7915 382.164 90.9756C380.301 92.1359 378.468 93.2066 376.663 94.1876C374.882 95.1565 373.315 95.9864 371.961 96.6774ZM364.117 76.2057L368.392 74.0236L376.848 90.5903L372.572 92.7725L364.117 76.2057ZM370.779 72.8052L375.019 70.6412L383.474 87.208L379.235 89.372L370.779 72.8052Z" fill="black"/>
</svg>
